# xmcd CD database file
# Copyright (C) 1996 Ti Kan
#
# Track frame offsets:
#	150
#	13752
#	27127
#	38905
#	50330
#	62062
#	76905
#	96047
#	106472
#	121027
#
# Disc length: 1824 seconds
#
# Revision: 1
# Processed by: cddbd v1.4b41PL1 Copyright (c) Steve Scherf et al.
# Submitted via: EasyCD 2.21 - (C) 1996 Greg Leichner
#
DISCID=72071e0a
DTITLE=Merle Haggard - Big City
DYEAR=1900
DGENRE=
TTITLE0=Big City
TTITLE1=My Favorite Memory
TTITLE2=Good Old American Guest
TTITLE3=I Think I'm Gonna Live Forever
TTITLE4=This Song Is Mine
TTITLE5=Stop The World
TTITLE6=Are The Good Times Really Over
TTITLE7=Texas Fiddle Song
TTITLE8=You Don't Have Very Far To Go
TTITLE9=I Always Get Lucky With You
EXTD=
EXTT0=
EXTT1=
EXTT2=
EXTT3=
EXTT4=
EXTT5=
EXTT6=
EXTT7=
EXTT8=
EXTT9=
PLAYORDER=
